<svg xmlns="http://www.w3.org/2000/svg" xmlns:svg="http://www.w3.org/2000/svg" xmlns:xlink="http://www.w3.org/1999/xlink" id="svg8" width="378.45" height="261.402" version="1.1" viewBox="0 0 100.132 69.163"><defs id="defs2"><linearGradient id="linearGradient3465"><stop style="stop-color:#05386b;stop-opacity:1" id="stop3461" offset="0"/><stop style="stop-color:#05386b;stop-opacity:0" id="stop3463" offset="1"/></linearGradient><linearGradient id="linearGradient3432"><stop style="stop-color:#c99609;stop-opacity:1" id="stop3428" offset="0"/><stop style="stop-color:#c99609;stop-opacity:0" id="stop3430" offset="1"/></linearGradient><linearGradient id="linearGradient3320"><stop style="stop-color:#f9df83;stop-opacity:1" id="stop3316" offset="0"/><stop style="stop-color:#f9df83;stop-opacity:0" id="stop3318" offset="1"/></linearGradient><linearGradient id="linearGradient2971"><stop style="stop-color:#04315c;stop-opacity:1" id="stop2967" offset="0"/><stop style="stop-color:#04315c;stop-opacity:0" id="stop2969" offset="1"/></linearGradient><linearGradient id="linearGradient2574"><stop style="stop-color:#1e8cf5;stop-opacity:1" id="stop2570" offset="0"/><stop style="stop-color:#1e8cf5;stop-opacity:0" id="stop2572" offset="1"/></linearGradient><radialGradient id="radialGradient2576" cx="114.326" cy="93.91" r="10.44" fx="114.326" fy="93.91" gradientTransform="matrix(1,0,0,1.2864112,0,-26.896743)" gradientUnits="userSpaceOnUse" xlink:href="#linearGradient2574"/><filter style="color-interpolation-filters:sRGB" id="filter2786" width="1.549" height="1.427" x="-.274" y="-.213"><feGaussianBlur id="feGaussianBlur2788" stdDeviation="2.387"/></filter><radialGradient id="radialGradient2973" cx="90.043" cy="117.18" r="21.529" fx="90.043" fy="117.18" gradientTransform="matrix(1,0,0,1.1792344,0,-21.002705)" gradientUnits="userSpaceOnUse" xlink:href="#linearGradient2971"/><filter style="color-interpolation-filters:sRGB" id="filter3019" width="1.549" height="1.426" x="-.275" y="-.213"><feGaussianBlur id="feGaussianBlur3021" stdDeviation="3.169"/></filter><filter style="color-interpolation-filters:sRGB" id="filter3273" width="1.542" height="1.431" x="-.271" y="-.215"><feGaussianBlur id="feGaussianBlur3275" stdDeviation="2.199"/></filter><radialGradient id="radialGradient3322" cx="71.715" cy="109.147" r="9.853" fx="71.715" fy="109.147" gradientTransform="matrix(0.76983398,-0.01918053,0.03631619,1.4575949,12.542439,-49.282069)" gradientUnits="userSpaceOnUse" xlink:href="#linearGradient3320"/><filter style="color-interpolation-filters:sRGB" id="filter3424" width="1.59" height="1.405" x="-.295" y="-.202"><feGaussianBlur id="feGaussianBlur3426" stdDeviation="2.422"/></filter><radialGradient id="radialGradient3434" cx="55.955" cy="123.107" r="15.02" fx="55.955" fy="123.107" gradientTransform="matrix(1,0,0,1.1669419,0,-20.551698)" gradientUnits="userSpaceOnUse" xlink:href="#linearGradient3432"/><radialGradient id="radialGradient3439" cx="55.955" cy="123.107" r="15.02" fx="55.955" fy="123.107" gradientTransform="matrix(1,0,0,1.1669419,0,-20.551698)" gradientUnits="userSpaceOnUse" xlink:href="#linearGradient3432"/><radialGradient id="radialGradient3443" cx="114.326" cy="93.91" r="10.44" fx="114.326" fy="93.91" gradientTransform="matrix(1,0,0,1.2864112,0,-26.896743)" gradientUnits="userSpaceOnUse" xlink:href="#linearGradient2574"/><radialGradient id="radialGradient3446" cx="71.715" cy="109.147" r="9.853" fx="71.715" fy="109.147" gradientTransform="matrix(0.76983398,-0.01918053,0.03631619,1.4575949,12.542439,-49.282069)" gradientUnits="userSpaceOnUse" xlink:href="#linearGradient3320"/><radialGradient id="radialGradient3467" cx="92.983" cy="117.405" r="21.448" fx="92.983" fy="117.405" gradientTransform="matrix(0.76902788,0,0,1.1865294,21.476375,-21.857537)" gradientUnits="userSpaceOnUse" xlink:href="#linearGradient3465"/><filter style="color-interpolation-filters:sRGB" id="filter902" width="1.169" height="1.167" x="-.085" y="-.083"><feGaussianBlur id="feGaussianBlur904" stdDeviation="1.921"/></filter><filter style="color-interpolation-filters:sRGB" id="filter885" width="1.297" height="1.279" x="-.149" y="-.14"><feGaussianBlur id="feGaussianBlur887" stdDeviation="2.267"/></filter></defs><metadata id="metadata5"/><g id="layer1" transform="translate(-40.934536,-73.466662)"><path style="opacity:1;fill:#07529a;fill-opacity:1;stroke:none;stroke-width:1.5;stroke-linecap:round;stroke-linejoin:miter;stroke-miterlimit:2.0999999;stroke-dasharray:none;stroke-dashoffset:18.89763832;stroke-opacity:1;paint-order:fill markers stroke;filter:url(#filter902)" id="path873-7" d="M 77.165929,100.08593 A 27.686808,27.686808 0 0 1 104.50808,79.659989 27.686808,27.686808 0 0 1 130.90435,101.29443 27.686808,27.686808 0 0 1 116.24475,132.115 27.686808,27.686808 0 0 1 82.805016,125.28885"/><path id="path983-8" style="opacity:1;fill:#eab90c;fill-opacity:1;stroke:none;stroke-width:1.5;stroke-linecap:round;stroke-linejoin:miter;stroke-miterlimit:2.0999999;stroke-dasharray:none;stroke-dashoffset:18.89763832;stroke-opacity:1;paint-order:fill markers stroke;filter:url(#filter885)" d="M 82.804341,125.20968 A 19.484343,19.484343 0 0 1 62.989602,135.17459 19.484343,19.484343 0 0 1 46.685759,120.1377 19.484343,19.484343 0 0 1 55.018748,99.583266 19.484343,19.484343 0 0 1 77.19098,100.14499"/><path style="opacity:1;fill:#07529a;fill-opacity:1;stroke:none;stroke-width:1.5;stroke-linecap:round;stroke-linejoin:miter;stroke-miterlimit:2.0999999;stroke-dasharray:none;stroke-dashoffset:18.89763832;stroke-opacity:1;paint-order:fill markers stroke" id="path873" d="m 77.120366,100.25589 a 27.686808,27.686808 0 0 1 27.293794,-20.597854 27.686808,27.686808 0 0 1 26.48758,21.624774 27.686808,27.686808 0 0 1 -14.71979,30.86342 27.686808,27.686808 0 0 1 -33.475258,-6.97351"/><path id="path983" style="opacity:1;fill:#eab90c;fill-opacity:1;stroke:none;stroke-width:1.5;stroke-linecap:round;stroke-linejoin:miter;stroke-miterlimit:2.0999999;stroke-dasharray:none;stroke-dashoffset:18.89763832;stroke-opacity:1;paint-order:fill markers stroke" d="M 82.804341,125.20968 A 19.484343,19.484343 0 0 1 62.986017,135.17409 19.484343,19.484343 0 0 1 46.684178,120.13063 19.484343,19.484343 0 0 1 55.027833,99.577316 19.484343,19.484343 0 0 1 77.20267,100.15354"/><g id="g3459"><path id="path873-0" d="M 103.52495,135.02427 A 27.686808,27.686808 0 0 1 81.550909,123.70147 27.686808,27.686808 0 0 1 77.38132,99.335947 l 26.50467,8.003873 z" style="opacity:1;fill:url(#radialGradient3467);fill-opacity:1;stroke:none;stroke-width:1.5;stroke-linecap:round;stroke-linejoin:miter;stroke-miterlimit:2.0999999;stroke-dasharray:none;stroke-dashoffset:18.89763832;stroke-opacity:1;paint-order:fill markers stroke;filter:url(#filter3019)"/><path d="m 65.452168,96.337424 a 19.484343,19.484343 0 0 1 16.895526,9.401916 19.484343,19.484343 0 0 1 0.475974,19.32946 l -17.149596,-9.2483 z" style="opacity:1;fill:url(#radialGradient3446);fill-opacity:1;stroke:none;stroke-width:1.5;stroke-linecap:round;stroke-linejoin:miter;stroke-miterlimit:2.0999999;stroke-dasharray:none;stroke-dashoffset:18.89763832;stroke-opacity:1;paint-order:fill markers stroke;filter:url(#filter3424)" id="path983-0"/><path id="path873-4" d="m 96.970414,80.530479 a 27.686808,27.686808 0 0 1 24.388946,5.333125 27.686808,27.686808 0 0 1 10.18163,22.794676 L 103.8856,107.3398 Z" style="opacity:1;fill:url(#radialGradient3443);fill-opacity:1;stroke:none;stroke-width:1.5;stroke-linecap:round;stroke-linejoin:miter;stroke-miterlimit:2.0999999;stroke-dasharray:none;stroke-dashoffset:18.89763832;stroke-opacity:1;paint-order:fill markers stroke;filter:url(#filter2786)"/><path d="m 65.193552,135.35659 a 19.484343,19.484343 0 0 1 -15.099903,-7.80833 19.484343,19.484343 0 0 1 -3.22288,-16.69102 l 18.826153,5.02151 z" style="opacity:1;fill:url(#radialGradient3439);fill-opacity:1;stroke:none;stroke-width:1.5;stroke-linecap:round;stroke-linejoin:miter;stroke-miterlimit:2.0999999;stroke-dasharray:none;stroke-dashoffset:18.89763832;stroke-opacity:1;paint-order:fill markers stroke;filter:url(#filter3273)" id="path983-2"/></g><path style="opacity:1;fill:none;fill-opacity:1;stroke:#fff;stroke-width:1.5;stroke-linecap:round;stroke-linejoin:miter;stroke-miterlimit:2.0999999;stroke-dasharray:none;stroke-dashoffset:18.89763832;stroke-opacity:1;paint-order:fill markers stroke" id="path873-42" d="m 77.166318,100.08595 a 27.686808,27.686808 0 0 1 27.342152,-20.425938 27.686808,27.686808 0 0 1 26.39627,21.634438 27.686808,27.686808 0 0 1 -14.65961,30.82058 27.686808,27.686808 0 0 1 -33.439725,-6.82616"/><path id="path983-20" style="opacity:1;fill:none;fill-opacity:1;stroke:#fff;stroke-width:1.5;stroke-linecap:round;stroke-linejoin:miter;stroke-miterlimit:2.0999999;stroke-dasharray:none;stroke-dashoffset:18.89763832;stroke-opacity:1;paint-order:fill markers stroke" d="M 82.767247,125.35775 A 19.484343,19.484343 0 0 1 62.971538,135.25112 19.484343,19.484343 0 0 1 46.695374,120.25661 19.484343,19.484343 0 0 1 54.935595,99.717683 19.484343,19.484343 0 0 1 77.062018,100.1303"/><g aria-label="B" style="font-style:normal;font-variant:normal;font-weight:600;font-stretch:normal;font-size:14.58553505px;line-height:1.25;font-family:'Source Code Pro';-inkscape-font-specification:'Source Code Pro Semi-Bold';letter-spacing:0;word-spacing:0;fill:none;fill-opacity:1;stroke:#fff;stroke-width:2.5;stroke-linejoin:round;stroke-miterlimit:4;stroke-dasharray:none;stroke-opacity:1;paint-order:markers stroke fill" id="text12-2"><path d="m 107.24542,120.37402 h 7.70117 c 5.04076,0 8.71631,-2.13532 8.71631,-6.72101 0,-3.11547 -1.85528,-4.86574 -5.14577,-5.42582 v -0.14002 c 2.6954,-0.70011 3.95559,-2.80042 3.95559,-4.97075 0,-4.200635 -3.39551,-5.635852 -8.12122,-5.635852 h -7.10608 z m 4.06062,-13.47703 v -6.16093 h 2.76541 c 2.97545,0 4.41067,0.77012 4.41067,2.87043 0,2.13532 -1.2952,3.2905 -4.48068,3.2905 z m 0,10.22154 v -7.14108 h 3.22048 c 3.43052,0 5.14578,0.98015 5.14578,3.39552 0,2.59039 -1.78527,3.74556 -5.14578,3.74556 z" style="font-style:normal;font-variant:normal;font-weight:600;font-stretch:normal;font-size:35.00528336px;font-family:'Source Code Pro';-inkscape-font-specification:'Source Code Pro Semi-Bold';fill:none;fill-opacity:1;stroke:#fff;stroke-width:2.5;stroke-linejoin:round;stroke-miterlimit:4;stroke-dasharray:none;stroke-opacity:1;paint-order:markers stroke fill" id="path914"/></g><g aria-label="T" style="font-style:normal;font-weight:400;font-size:14.58553505px;line-height:1.25;font-family:sans-serif;letter-spacing:0;word-spacing:0;opacity:1;fill:none;fill-opacity:1;stroke:#fff;stroke-width:2.5;stroke-linejoin:round;stroke-miterlimit:4;stroke-dasharray:none;stroke-opacity:1;paint-order:markers stroke fill" id="text12-5"><path d="m 92.286502,120.37402 h 4.060613 V 100.91109 H 103.5582 V 97.480568 H 85.075414 v 3.430522 h 7.211088 z" style="font-style:normal;font-variant:normal;font-weight:600;font-stretch:normal;font-size:35.00528336px;font-family:'Source Code Pro';-inkscape-font-specification:'Source Code Pro Semi-Bold';fill:none;fill-opacity:1;stroke:#fff;stroke-width:2.5;stroke-linejoin:round;stroke-miterlimit:4;stroke-dasharray:none;stroke-opacity:1;paint-order:markers stroke fill" id="path911"/></g><g aria-label="x" style="font-style:normal;font-variant:normal;font-weight:400;font-stretch:normal;font-size:15.73999023px;line-height:1.25;font-family:'Source Code Pro';-inkscape-font-specification:'Source Code Pro';letter-spacing:0;word-spacing:0;fill:none;fill-opacity:1;stroke:#fff;stroke-width:2.5;stroke-linejoin:round;stroke-miterlimit:4;stroke-dasharray:none;stroke-opacity:1;paint-order:markers stroke fill" id="text12-9"><path d="m 56.372661,125.47789 h 3.324286 l 3.022078,-4.23091 c 0.755519,-1.17105 1.511039,-2.22878 2.266559,-3.32429 h 0.151104 c 0.793295,1.05773 1.662143,2.26656 2.417662,3.32429 l 3.210958,4.23091 h 3.399838 l -7.026332,-9.25511 6.535245,-9.10402 h -3.286511 l -2.757646,3.96648 c -0.642192,1.01995 -1.397711,2.15323 -2.077679,3.17318 h -0.151104 c -0.755519,-1.01995 -1.511039,-2.11545 -2.15323,-3.09763 l -2.908751,-4.04203 h -3.437614 l 6.459693,8.83958 z" style="font-style:normal;font-variant:normal;font-weight:400;font-stretch:normal;font-size:37.77597809px;font-family:'Source Code Pro';-inkscape-font-specification:'Source Code Pro';fill:none;fill-opacity:1;stroke:#fff;stroke-width:2.5;stroke-linejoin:round;stroke-miterlimit:4;stroke-dasharray:none;stroke-opacity:1;paint-order:markers stroke fill" id="path904"/></g><g aria-label="x" style="font-style:normal;font-variant:normal;font-weight:400;font-stretch:normal;font-size:15.73999023px;line-height:1.25;font-family:'Source Code Pro';-inkscape-font-specification:'Source Code Pro';letter-spacing:0;word-spacing:0;fill:#909085;fill-opacity:1;stroke:none;stroke-width:2.5;stroke-linejoin:round;stroke-miterlimit:4;stroke-dasharray:none;stroke-opacity:1;paint-order:markers stroke fill" id="text12-9-3"><path d="m 56.372661,125.47789 h 3.324286 l 3.022078,-4.23091 c 0.755519,-1.17105 1.511039,-2.22878 2.266559,-3.32429 h 0.151104 c 0.793295,1.05773 1.662143,2.26656 2.417662,3.32429 l 3.210958,4.23091 h 3.399838 l -7.026332,-9.25511 6.535245,-9.10402 h -3.286511 l -2.757646,3.96648 c -0.642192,1.01995 -1.397711,2.15323 -2.077679,3.17318 h -0.151104 c -0.755519,-1.01995 -1.511039,-2.11545 -2.15323,-3.09763 l -2.908751,-4.04203 h -3.437614 l 6.459693,8.83958 z" style="font-style:normal;font-variant:normal;font-weight:400;font-stretch:normal;font-size:37.77597809px;font-family:'Source Code Pro';-inkscape-font-specification:'Source Code Pro';fill:#909085;fill-opacity:1;stroke:none;stroke-width:2.5;stroke-linejoin:round;stroke-miterlimit:4;stroke-dasharray:none;stroke-opacity:1;paint-order:markers stroke fill" id="path901"/></g><g id="text12-2-5" style="font-style:normal;font-variant:normal;font-weight:600;font-stretch:normal;font-size:14.58553505px;line-height:1.25;font-family:'Source Code Pro';-inkscape-font-specification:'Source Code Pro Semi-Bold';letter-spacing:0;word-spacing:0;fill:#909085;fill-opacity:1;stroke:none;stroke-width:2.5;stroke-linejoin:round;stroke-miterlimit:4;stroke-dasharray:none;stroke-opacity:1;paint-order:markers stroke fill" aria-label="B" transform="translate(0.69432201,0.78262549)"><path id="path891" style="font-style:normal;font-variant:normal;font-weight:600;font-stretch:normal;font-size:35.00528336px;font-family:'Source Code Pro';-inkscape-font-specification:'Source Code Pro Semi-Bold';fill:#909085;fill-opacity:1;stroke:none;stroke-width:2.5;stroke-linejoin:round;stroke-miterlimit:4;stroke-dasharray:none;stroke-opacity:1;paint-order:markers stroke fill" d="m 106.55111,119.5914 h 7.70116 c 5.04076,0 8.71632,-2.13532 8.71632,-6.72101 0,-3.11547 -1.85528,-4.86574 -5.14578,-5.42582 v -0.14002 c 2.69541,-0.70011 3.9556,-2.80043 3.9556,-4.97075 0,-4.200639 -3.39551,-5.635855 -8.12123,-5.635855 h -7.10607 z m 4.06061,-13.47703 v -6.160934 h 2.76542 c 2.97545,0 4.41067,0.770114 4.41067,2.870434 0,2.13532 -1.2952,3.2905 -4.48068,3.2905 z m 0,10.22154 v -7.14108 h 3.22049 c 3.43052,0 5.14578,0.98015 5.14578,3.39551 0,2.59039 -1.78527,3.74557 -5.14578,3.74557 z"/></g><g aria-label="T" style="font-style:normal;font-weight:400;font-size:14.58553505px;line-height:1.25;font-family:sans-serif;letter-spacing:0;word-spacing:0;opacity:1;fill:#909085;fill-opacity:1;stroke:none;stroke-width:2.5;stroke-linejoin:round;stroke-miterlimit:4;stroke-dasharray:none;stroke-opacity:1;paint-order:markers stroke fill" id="text12-5-5"><path d="m 92.28651,120.37402 h 4.060613 v -19.46293 h 7.211087 V 97.480568 H 85.075422 v 3.430522 h 7.211088 z" style="font-style:normal;font-variant:normal;font-weight:600;font-stretch:normal;font-size:35.00528336px;font-family:'Source Code Pro';-inkscape-font-specification:'Source Code Pro Semi-Bold';fill:#909085;fill-opacity:1;stroke:none;stroke-width:2.5;stroke-linejoin:round;stroke-miterlimit:4;stroke-dasharray:none;stroke-opacity:1;paint-order:markers stroke fill" id="path917"/></g></g></svg>